<?xml version="1.0" encoding="UTF-8"?>
<svg version="1.1" xmlns="http://www.w3.org/2000/svg" width="958" height="485">
<path d="M0 0 C316.14 0 632.28 0 958 0 C958 160.05 958 320.1 958 485 C641.86 485 325.72 485 0 485 C0 324.95 0 164.9 0 0 Z " fill="#FEFEFE" transform="translate(0,0)"/>
<path d="M0 0 C4.29 0 8.58 0 13 0 C13 10.23 13 20.46 13 31 C15.31 30.34 17.62 29.68 20 29 C28.00605126 27.75857804 36.15192361 27.7581556 43.1875 32.0625 C50.35004332 37.48603432 55.36147198 42.9607871 57 52 C57.70616347 59.90510768 57.18343325 66.71512018 54 74 C53.5875 75.051875 53.175 76.10375 52.75 77.1875 C48.32634985 84.29693773 41.00014617 88.82746613 33 91 C23.0061135 92.17533403 8.52713629 92.68475752 0 87 C-0.28621686 84.18882089 -0.37819403 81.59884571 -0.34057617 78.78662109 C-0.34101425 77.9377684 -0.34145233 77.08891571 -0.34190369 76.21434021 C-0.33980882 73.40047432 -0.31644515 70.58719967 -0.29296875 67.7734375 C-0.28737527 65.82573777 -0.283104 63.87803382 -0.28010559 61.93032837 C-0.26863727 56.79769285 -0.23915304 51.665311 -0.20599365 46.53277588 C-0.17533553 41.29792716 -0.16160937 36.06303756 -0.14648438 30.828125 C-0.11428521 20.55197173 -0.06306492 10.27600694 0 0 Z " fill="#274C83" transform="translate(480,202)"/>
<path d="M0 0 C0 -0.99 0 -1.98 0 -3 C3.96 -3 7.92 -3 12 -3 C12 16.14 12 35.28 12 55 C0.73573657 59.50570537 0.73573657 59.50570537 -3.7265625 59.49609375 C-5.180625 59.49706055 -5.180625 59.49706055 -6.6640625 59.49804688 C-7.64117188 59.47806641 -8.61828125 59.45808594 -9.625 59.4375 C-11.10226562 59.44813477 -11.10226562 59.44813477 -12.609375 59.45898438 C-22.39962704 59.37413552 -29.72114488 56.65539857 -37 50 C-42.94664905 43.45115864 -44.38023699 36.21638484 -44.3125 27.5625 C-44.30686035 26.8104126 -44.3012207 26.0583252 -44.29541016 25.28344727 C-44.09804265 16.30127161 -41.27684321 9.57172846 -35 3 C-24.65627782 -5.05176062 -11.87590559 -4.91416783 0 0 Z " fill="#264B82" transform="translate(812,234)"/>
<path d="M0 0 C0 -1.32 0 -2.64 0 -4 C3.96 -4 7.92 -4 12 -4 C12 15.14 12 34.28 12 54 C3.82204245 58.08897877 -0.06686313 58.70894611 -8.75 58.625 C-9.90854492 58.61734619 -11.06708984 58.60969238 -12.26074219 58.60180664 C-22.69743725 58.32991025 -29.9548909 56.39423584 -37.5 48.8125 C-43.90848154 40.12881792 -44.97948753 30.51157351 -44 20 C-42.69887399 11.99307072 -40.46247362 6.38477426 -33.81640625 1.34375 C-23.50790883 -5.83326627 -11.0263687 -6.53414441 0 0 Z " fill="#254B82" transform="translate(406,235)"/>
<path d="M0 0 C4.90877661 4.17003003 7.38775305 8.81972003 9 15 C9 18.96 9 22.92 9 27 C-5.52 27 -20.04 27 -35 27 C-32.31100927 35.41706065 -32.31100927 35.41706065 -27 41 C-17.03321756 44.37544972 -6.5752872 44.41936332 3 40 C3.99 40 4.98 40 6 40 C6 43.96 6 47.92 6 52 C-5.26460959 56.98242347 -18.33653263 58.11400458 -30.42578125 55.1640625 C-38.15124813 51.58367505 -43.80523841 44.80941721 -47 37 C-49.35828103 28.80117478 -49.63780158 17.23820623 -46.0625 9.375 C-42.06895584 2.84318625 -35.82519276 -3.34509621 -28.34765625 -5.58984375 C-17.6174638 -7.464503 -9.03631491 -6.2305185 0 0 Z " fill="#264B82" transform="translate(707,237)"/>
<path d="M0 0 C3.96 0 7.92 0 12 0 C12 11.88 12 23.76 12 36 C23.22 36 34.44 36 46 36 C46 39.63 46 43.26 46 47 C34.78 47 23.56 47 12 47 C12 59.87 12 72.74 12 86 C8.04 86 4.08 86 0 86 C0 73.13 0 60.26 0 47 C-11.55 47 -23.1 47 -35 47 C-35 43.04 -35 39.08 -35 35 C-23.45 35 -11.9 35 0 35 C0 23.45 0 11.9 0 0 Z " fill="#224880" transform="translate(267,207)"/>
<path d="M0 0 C4.62 0 9.24 0 14 0 C14.01981934 1.24612061 14.03963867 2.49224121 14.06005859 3.77612305 C14.13623654 8.40751051 14.22493532 13.03858881 14.31738281 17.66967773 C14.35562217 19.67254524 14.39048381 21.67548025 14.421875 23.6784668 C14.46763496 26.56062917 14.52561154 29.44232894 14.5859375 32.32421875 C14.59748871 33.21711105 14.60903992 34.11000336 14.62094116 35.029953 C14.74579894 40.31147517 14.96915392 44.64421854 18.5625 48.8125 C22.34008222 50.65286057 25.87788908 50.52957675 30 50 C34.22688935 48.43448542 36.83296393 46.96509974 39 43 C39.47896509 39.73951031 39.48885674 36.49446121 39.51171875 33.203125 C39.52966995 32.25435486 39.54762115 31.30558472 39.56611633 30.32806396 C39.62023506 27.30208765 39.65412026 24.27626922 39.6875 21.25 C39.72067167 19.19659261 39.75516119 17.14320605 39.79101562 15.08984375 C39.87596257 10.06000972 39.94276651 5.03022264 40 0 C44.29 0 48.58 0 53 0 C53.07439398 6.13807552 53.12871769 12.27588608 53.16479492 18.41430664 C53.17984159 20.5006162 53.20028382 22.58689433 53.22631836 24.6730957 C53.26288295 27.67927831 53.2797679 30.68504112 53.29296875 33.69140625 C53.30845261 34.61772354 53.32393646 35.54404083 53.33988953 36.49842834 C53.34166039 43.37876595 52.28401153 48.09307623 47.9375 53.625 C39.07327815 60.79181767 31.03566984 62.16367778 19.90283203 61.23486328 C12.46206891 60.3164627 8.12027259 56.69857474 3.41015625 51.09765625 C-0.36295803 45.48501812 -0.26757375 40.44349328 -0.1953125 33.88671875 C-0.19106766 32.43239189 -0.19106766 32.43239189 -0.18673706 30.94868469 C-0.17556991 27.86149595 -0.15047152 24.77460061 -0.125 21.6875 C-0.11496573 19.59049899 -0.10584066 17.49349342 -0.09765625 15.39648438 C-0.07564188 10.2642104 -0.04113571 5.1321549 0 0 Z " fill="#2A4F85" transform="translate(878,232)"/>
<path d="M0 0 C4.29 0 8.58 0 13 0 C13 37.62 13 75.24 13 114 C8.71 114 4.42 114 0 114 C0 76.38 0 38.76 0 0 Z " fill="#244A81" transform="translate(590,190)"/>
<path d="M0 0 C3.63 0 7.26 0 11 0 C11 9.24 11 18.48 11 28 C19.25 28 27.5 28 36 28 C36 31.63 36 35.26 36 39 C27.75 39 19.5 39 11 39 C11 47.91 11 56.82 11 66 C7.37 66 3.74 66 0 66 C0 57.09 0 48.18 0 39 C-8.25 39 -16.5 39 -25 39 C-25 35.37 -25 31.74 -25 28 C-16.75 28 -8.5 28 0 28 C0 18.76 0 9.52 0 0 Z " fill="#E9803D" transform="translate(86,215)"/>
<path d="M0 0 C5.12242529 -0.19730823 8.45630568 -0.25241551 12.57421875 3.1484375 C13.03083381 5.93310196 13.16085372 8.10348915 13.0625 10.87890625 C13.05542526 11.62932693 13.04835052 12.37974762 13.0410614 13.15290833 C13.01308532 15.54826845 12.95034884 17.94128497 12.88671875 20.3359375 C12.86163967 21.96025268 12.83882581 23.58460453 12.81835938 25.20898438 C12.76324918 29.18970421 12.67696108 33.16867365 12.57421875 37.1484375 C6.39451729 39.20833799 -1.93282548 39.55705508 -8.05078125 37.08984375 C-12.71692984 33.82884218 -15.88011527 29.64089838 -17.42578125 24.1484375 C-18.28495683 17.85769213 -17.64013035 12.71997594 -14.42578125 7.1484375 C-11.89103565 3.84354795 -9.69236406 1.55144112 -5.67578125 0.2734375 C-3.78305933 0.2006405 -1.89058508 0.11568798 0 0 Z " fill="#F7F8FA" transform="translate(392.42578125,242.8515625)"/>
<path d="M0 0 C3.652579 2.64832224 5.36785711 6.09575883 6.76171875 10.27734375 C7.46573374 17.42136472 7.11715776 23.38547687 2.76171875 29.27734375 C-1.11256417 33.43132089 -4.49313429 35.11696152 -10.11328125 35.4453125 C-11.14453125 35.45175781 -12.17578125 35.45820313 -13.23828125 35.46484375 C-14.26953125 35.47902344 -15.30078125 35.49320312 -16.36328125 35.5078125 C-19.23828125 35.27734375 -19.23828125 35.27734375 -23.23828125 33.27734375 C-23.23828125 22.05734375 -23.23828125 10.83734375 -23.23828125 -0.72265625 C-7.60277942 -4.19721221 -7.60277942 -4.19721221 0 0 Z " fill="#F9FAFB" transform="translate(516.23828125,245.72265625)"/>
<path d="M0 0 C4.53271745 -0.19247208 6.29399304 1.20635416 11.0625 3.25 C11.0625 14.47 11.0625 25.69 11.0625 37.25 C4.41936901 38.91078275 -2.15242602 38.92380822 -8.8125 37.3125 C-13.69514 34.0899576 -16.35266542 29.41966916 -18.9375 24.25 C-19.55748699 16.95323001 -19.31745413 11.47743525 -14.61328125 5.59375 C-12.20720977 2.91612715 -10.54865815 1.43600466 -7.0625 0.375 C-4.70690081 0.28077603 -2.35274544 0.14938066 0 0 Z " fill="#F7F9FA" transform="translate(799.9375,242.75)"/>
<path d="M0 0 C2.97 0 5.94 0 9 0 C10 1 10 1 10.11352539 3.31665039 C10.10828857 4.31688232 10.10305176 5.31711426 10.09765625 6.34765625 C10.09443359 7.42724609 10.09121094 8.50683594 10.08789062 9.61914062 C10.07532227 11.32360352 10.07532227 11.32360352 10.0625 13.0625 C10.05798828 14.20267578 10.05347656 15.34285156 10.04882812 16.51757812 C10.0369976 19.34507418 10.0190615 22.17254345 10 25 C17.26 25 24.52 25 32 25 C32 27.64 32 30.28 32 33 C24.41 33 16.82 33 9 33 C9 41.25 9 49.5 9 58 C6.03 58 3.06 58 0 58 C0 50.08 0 42.16 0 34 C-7.59 34 -15.18 34 -23 34 C-23 31.03 -23 28.06 -23 25 C-15.41 25 -7.82 25 0 25 C0 16.75 0 8.5 0 0 Z " fill="#6C94A6" transform="translate(135,174)"/>
<path d="M0 0 C2.97 0 5.94 0 9 0 C9 8.25 9 16.5 9 25 C16.59 25 24.18 25 32 25 C32 27.31 32 29.62 32 32 C24.41 32 16.82 32 9 32 C9 40.25 9 48.5 9 57 C6.03 57 3.06 57 0 57 C0 49.08 0 41.16 0 33 C-7.59 33 -15.18 33 -23 33 C-23 30.03 -23 27.06 -23 24 C-15.41 24 -7.82 24 0 24 C0 16.08 0 8.16 0 0 Z " fill="#2F5387" transform="translate(135,264)"/>
<path d="M0 0 C2.97 0 5.94 0 9 0 C9 8.25 9 16.5 9 25 C16.59 25 24.18 25 32 25 C32 27.64 32 30.28 32 33 C24.41 33 16.82 33 9 33 C9 41.25 9 49.5 9 58 C6.36 58 3.72 58 1 58 C1 49.75 1 41.5 1 33 C-6.59 33 -14.18 33 -22 33 C-22 30.69 -22 28.38 -22 26 C-14.74 26 -7.48 26 0 26 C0 17.42 0 8.84 0 0 Z " fill="#EC9837" transform="translate(39,174)"/>
<path d="M0 0 C2.97 0 5.94 0 9 0 C9 8.25 9 16.5 9 25 C16.59 25 24.18 25 32 25 C32 27.31 32 29.62 32 32 C24.41 32 16.82 32 9 32 C9 40.25 9 48.5 9 57 C6.03 57 3.06 57 0 57 C0 48.75 0 40.5 0 32 C-7.26 32 -14.52 32 -22 32 C-22 29.69 -22 27.38 -22 25 C-14.74 25 -7.48 25 0 25 C0 16.75 0 8.5 0 0 Z " fill="#C9273D" transform="translate(39,264)"/>
<path d="M0 0 C2.64 0 5.28 0 8 0 C8 5.61 8 11.22 8 17 C12.95 17 17.9 17 23 17 C23 19.31 23 21.62 23 24 C17.72 24 12.44 24 7 24 C7 29.61 7 35.22 7 41 C4.69 41 2.38 41 0 41 C0 35.39 0 29.78 0 24 C-5.28 24 -10.56 24 -16 24 C-16 21.69 -16 19.38 -16 17 C-10.72 17 -5.44 17 0 17 C0 11.39 0 5.78 0 0 Z " fill="#666F98" transform="translate(88,299)"/>
<path d="M0 0 C2.31 0 4.62 0 7 0 C7 5.61 7 11.22 7 17 C12.28 17 17.56 17 23 17 C23 19.31 23 21.62 23 24 C17.72 24 12.44 24 7 24 C7 29.61 7 35.22 7 41 C4.36 41 1.72 41 -1 41 C-1 35.39 -1 29.78 -1 24 C-5.95 24 -10.9 24 -16 24 C-16 21.69 -16 19.38 -16 17 C-10.72 17 -5.44 17 0 17 C0 11.39 0 5.78 0 0 Z " fill="#656F98" transform="translate(162,228)"/>
<path d="M0 0 C1.65 0 3.3 0 5 0 C5 5.28 5 10.56 5 16 C10.28 16 15.56 16 21 16 C21 17.98 21 19.96 21 22 C16.05 22 11.1 22 6 22 C6 27.61 6 33.22 6 39 C4.02 39 2.04 39 0 39 C0 33.39 0 27.78 0 22 C-4.62 22 -9.24 22 -14 22 C-14 20.35 -14 18.7 -14 17 C-9.38 17 -4.76 17 0 17 C0 11.39 0 5.78 0 0 Z " fill="#7CA1AD" transform="translate(14,229)"/>
<path d="M0 0 C1.98 0 3.96 0 6 0 C6 5.61 6 11.22 6 17 C10.95 17 15.9 17 21 17 C21 18.65 21 20.3 21 22 C15.72 22 10.44 22 5 22 C5 27.61 5 33.22 5 39 C3.35 39 1.7 39 0 39 C0 33.39 0 27.78 0 22 C-4.95 22 -9.9 22 -15 22 C-15 20.35 -15 18.7 -15 17 C-10.05 17 -5.1 17 0 17 C0 11.39 0 5.78 0 0 Z " fill="#799EAB" transform="translate(89,157)"/>
<path d="M0 0 C3.96297339 0.86212053 5.59711878 2.38297984 8.2265625 5.484375 C8.91069736 9.13309424 8.50662578 10.89757574 6.9140625 14.234375 C5.2265625 16.484375 5.2265625 16.484375 2.2265625 18.484375 C-0.7903463 18.82499373 -2.86751565 19.05649607 -5.7734375 18.484375 C-9.42081494 15.53543154 -11.52518613 13.34626026 -12.1484375 8.671875 C-11.7734375 5.484375 -11.7734375 5.484375 -9.8359375 2.609375 C-6.26562688 0.13201661 -4.25992268 -0.2564502 0 0 Z " fill="#7097A8" transform="translate(365.7734375,326.515625)"/>
<path d="M0 0 C4.23929037 1.67805244 6.09193598 3.8825987 8 8 C8 9.32 8 10.64 8 12 C-1.24 12 -10.48 12 -20 12 C-18.86617962 6.33089812 -17.72307357 4.92266355 -13.45703125 1.39453125 C-9.08526272 -1.08674278 -4.84875886 -0.82969343 0 0 Z " fill="#EEF1F5" transform="translate(694,243)"/>
<path d="M0 0 C1.65 0 3.3 0 5 0 C6.4606285 2.64738916 7 3.89448334 7 7 C7.66 7 8.32 7 9 7 C9.66 4.69 10.32 2.38 11 0 C12.65 0.33 14.3 0.66 16 1 C16.33 2.98 16.66 4.96 17 7 C17.66 7 18.32 7 19 7 C19.66 4.69 20.32 2.38 21 0 C22.65 0 24.3 0 26 0 C24.64474464 4.21775732 23.09799886 8.29421322 21.375 12.375 C20.92898438 13.43460937 20.48296875 14.49421875 20.0234375 15.5859375 C19.68570313 16.38257813 19.34796875 17.17921875 19 18 C18.01 17.67 17.02 17.34 16 17 C15.26953125 14.93359375 15.26953125 14.93359375 14.8125 12.4375 C14.65394531 11.61121094 14.49539063 10.78492188 14.33203125 9.93359375 C14.22246094 9.29550781 14.11289062 8.65742188 14 8 C13.34 8 12.68 8 12 8 C11.87625 9.093125 11.7525 10.18625 11.625 11.3125 C11 15 11 15 9 18 C8.34 18 7.68 18 7 18 C6.74605469 17.34773438 6.49210938 16.69546875 6.23046875 16.0234375 C4.68671587 12.10334593 3.13555332 8.27110664 1.25 4.5 C0 2 0 2 0 0 Z " fill="#7097A8" transform="translate(626,327)"/>
<path d="M0 0 C10.625 -0.25 10.625 -0.25 14 2 C14.27324172 4.5957963 14.13200425 6.56438597 13.375 9.0625 C12.8751545 11.6450351 13.76096091 12.74057579 15 15 C15 15.99 15 16.98 15 18 C13.35 18 11.7 18 10 18 C9.34 15.69 8.68 13.38 8 11 C7.01 11 6.02 11 5 11 C5 13.31 5 15.62 5 18 C3.35 18 1.7 18 0 18 C0 12.06 0 6.12 0 0 Z " fill="#759AAB" transform="translate(809,327)"/>
<path d="M0 0 C2.31 0 4.62 0 7 0 C8.00399524 2.62353518 9.00334445 5.24867795 10 7.875 C10.42925781 8.99455078 10.42925781 8.99455078 10.8671875 10.13671875 C13 15.7734375 13 15.7734375 13 18 C11.35 18 9.7 18 8 18 C7.67 16.68 7.34 15.36 7 14 C4.36 14 1.72 14 -1 14 C-1 15.32 -1 16.64 -1 18 C-2.98 18 -4.96 18 -7 18 C-5.06375702 11.79522136 -2.74390859 5.89174281 0 0 Z " fill="#789DAD" transform="translate(725,327)"/>
<path d="M0 0 C3.375 0.875 3.375 0.875 5.375 2.875 C5.67578125 5.40625 5.67578125 5.40625 5.6875 8.375 C5.70425781 9.3546875 5.72101562 10.334375 5.73828125 11.34375 C5.55845703 12.59671875 5.55845703 12.59671875 5.375 13.875 C1.67084707 16.34443529 -0.24644505 16.34413089 -4.625 15.875 C-6.91045181 14.10561796 -7.47403918 12.79586098 -7.9375 9.96875 C-8.1501775 6.40640189 -7.94626852 4.40188037 -6.0625 1.3125 C-3.625 -0.125 -3.625 -0.125 0 0 Z " fill="#94A7C1" transform="translate(952.625,231.125)"/>
<path d="M0 0 C3.96 0 7.92 0 12 0 C12 0.99 12 1.98 12 3 C9.69 3 7.38 3 5 3 C5 4.32 5 5.64 5 7 C7.31 7 9.62 7 12 7 C12 7.99 12 8.98 12 10 C9.69 10 7.38 10 5 10 C5 11.32 5 12.64 5 14 C7.31 14 9.62 14 12 14 C12 15.32 12 16.64 12 18 C8.04 18 4.08 18 0 18 C0 12.06 0 6.12 0 0 Z " fill="#6D95A7" transform="translate(897,327)"/>
<path d="M0 0 C1.21816406 0.03480469 1.21816406 0.03480469 2.4609375 0.0703125 C3.68683594 0.09738281 3.68683594 0.09738281 4.9375 0.125 C5.87722656 0.15980469 5.87722656 0.15980469 6.8359375 0.1953125 C7.1659375 1.5153125 7.4959375 2.8353125 7.8359375 4.1953125 C5.5259375 4.1953125 3.2159375 4.1953125 0.8359375 4.1953125 C0.5059375 4.8553125 0.1759375 5.5153125 -0.1640625 6.1953125 C2.8059375 7.1853125 5.7759375 8.1753125 8.8359375 9.1953125 C9.31786521 14.61699925 9.31786521 14.61699925 7.2734375 17.0703125 C3.99665853 18.58267203 1.40300424 18.45953967 -2.1640625 18.1953125 C-2.8240625 17.8653125 -3.4840625 17.5353125 -4.1640625 17.1953125 C-4.1640625 15.8753125 -4.1640625 14.5553125 -4.1640625 13.1953125 C-1.5240625 13.5253125 1.1159375 13.8553125 3.8359375 14.1953125 C3.8359375 13.2053125 3.8359375 12.2153125 3.8359375 11.1953125 C2.8871875 11.0715625 1.9384375 10.9478125 0.9609375 10.8203125 C-2.1640625 10.1953125 -2.1640625 10.1953125 -4.1640625 8.1953125 C-4.4140625 5.1953125 -4.4140625 5.1953125 -4.1640625 2.1953125 C-2.1640625 0.1953125 -2.1640625 0.1953125 0 0 Z " fill="#6B94A6" transform="translate(272.1640625,326.8046875)"/>
<path d="M0 0 C5.28 0 10.56 0 16 0 C16 1.32 16 2.64 16 4 C14.35 4 12.7 4 11 4 C11 8.62 11 13.24 11 18 C9.02 18 7.04 18 5 18 C5 13.38 5 8.76 5 4 C3.35 4 1.7 4 0 4 C0 2.68 0 1.36 0 0 Z " fill="#7A9FAF" transform="translate(539,327)"/>
<path d="M0 0 C3.96 0 7.92 0 12 0 C12 0.99 12 1.98 12 3 C9.69 3 7.38 3 5 3 C5 4.32 5 5.64 5 7 C7.31 7 9.62 7 12 7 C12 8.32 12 9.64 12 11 C9.69 11 7.38 11 5 11 C5 13.31 5 15.62 5 18 C3.35 18 1.7 18 0 18 C0 12.06 0 6.12 0 0 Z " fill="#7399AA" transform="translate(451,327)"/>
<path d="M0 0 C2.5 0.25 2.5 0.25 4.5 2.25 C4.6875 5.3125 4.6875 5.3125 4.5 8.25 C3.5 9.25 3.5 9.25 0.5625 9.4375 C-2.5 9.25 -2.5 9.25 -4.5 7.25 C-4.75 4.75 -4.75 4.75 -4.5 2.25 C-2.5 0.25 -2.5 0.25 0 0 Z " fill="#F6F8F9" transform="translate(363.5,330.75)"/>
<path d="M0 0 C0.66 0.33 1.32 0.66 2 1 C1.24074219 1.71285156 0.48148438 2.42570313 -0.30078125 3.16015625 C-1.3052227 4.12704849 -2.30909901 5.09452805 -3.3125 6.0625 C-3.81201172 6.52849609 -4.31152344 6.99449219 -4.82617188 7.47460938 C-10.92906717 13.41583857 -12.43927832 19.66108001 -12.6875 27.9375 C-12.72166016 28.71673828 -12.75582031 29.49597656 -12.79101562 30.29882812 C-12.8726071 32.19874393 -12.93799885 34.09934403 -13 36 C-13.33 36 -13.66 36 -14 36 C-15.00683602 15.46054519 -15.00683602 15.46054519 -9 8 C-6.15786865 5.11034137 -3.19489113 2.49187587 0 0 Z " fill="#54729D" transform="translate(673,234)"/>
<path d="M0 0 C5.75 0.75 5.75 0.75 8 3 C8.34490322 7.05261287 8.30163882 8.54754176 6 12 C2.875 12.1875 2.875 12.1875 0 12 C0.33 10.68 0.66 9.36 1 8 C1.99 8.33 2.98 8.66 4 9 C4 7.02 4 5.04 4 3 C2.35 2.67 0.7 2.34 -1 2 C-0.67 1.34 -0.34 0.68 0 0 Z " fill="#D0D8E3" transform="translate(950,233)"/>
<path d="M0 0 C0.99 0.33 1.98 0.66 3 1 C3.33 3.64 3.66 6.28 4 9 C3.01 9.495 3.01 9.495 2 10 C2 9.01 2 8.02 2 7 C0.35 7.33 -1.3 7.66 -3 8 C-2.25 2.25 -2.25 2.25 0 0 Z " fill="#638EA1" transform="translate(638,328)"/>
<path d="M0 0 C3.375 1 3.375 1 4.8125 3.0625 C5.0909375 4.0215625 5.0909375 4.0215625 5.375 5 C4.818125 4.649375 4.26125 4.29875 3.6875 3.9375 C0.78968152 2.76270872 -0.6767025 3.06895868 -3.625 4 C-5.98453094 6.35953094 -6.11641413 7.77895617 -6.625 11 C-6.955 11 -7.285 11 -7.625 11 C-8.10445205 4.76712329 -8.10445205 4.76712329 -6.0625 1.5 C-3.625 0 -3.625 0 0 0 Z " fill="#637DA5" transform="translate(952.625,231)"/>
<path d="M0 0 C2.475 0.495 2.475 0.495 5 1 C5 3.31 5 5.62 5 8 C3.68 7.34 2.36 6.68 1 6 C0.67 6.66 0.34 7.32 0 8 C0 5.36 0 2.72 0 0 Z " fill="#6A84A9" transform="translate(950,235)"/>
<path d="M0 0 C0.33 1.32 0.66 2.64 1 4 C0.01 4 -0.98 4 -2 4 C-2 4.66 -2 5.32 -2 6 C-1.34 6 -0.68 6 0 6 C-0.33 6.66 -0.66 7.32 -1 8 C-3.31 7.01 -5.62 6.02 -8 5 C-7.67 4.01 -7.34 3.02 -7 2 C-4.69 2.33 -2.38 2.66 0 3 C0 2.01 0 1.02 0 0 Z " fill="#CFDCE1" transform="translate(280,328)"/>
<path d="M0 0 C1.65 0.33 3.3 0.66 5 1 C5 1.99 5 2.98 5 4 C2.36 3.67 -0.28 3.34 -3 3 C-3.33 4.32 -3.66 5.64 -4 7 C-4 5.35 -4 3.7 -4 2 C-2.68 2 -1.36 2 0 2 C0 1.34 0 0.68 0 0 Z " fill="#E4EBEF" transform="translate(271,337)"/>
<path d="M0 0 C0.66 0.33 1.32 0.66 2 1 C-1.3 4.3 -4.6 7.6 -8 11 C-8 7.0234755 -6.61988497 5.9109833 -4 3 C-1.75 1.1875 -1.75 1.1875 0 0 Z " fill="#4B6A98" transform="translate(781,234)"/>
<path d="M0 0 C0.66 0.33 1.32 0.66 2 1 C0.71451591 2.33929505 -0.57858155 3.67128643 -1.875 5 C-2.59429687 5.7425 -3.31359375 6.485 -4.0546875 7.25 C-6 9 -6 9 -8 9 C-6.4169423 4.7257442 -3.49431596 2.73468206 0 0 Z " fill="#4C6B98" transform="translate(375,234)"/>
</svg>
